<svg width="30" height="30" viewBox="0 0 30 30" fill="none" xmlns="http://www.w3.org/2000/svg">
<circle cx="15" cy="15" r="15" fill="#003459"/>
<g clip-path="url(#clip0)">
<path d="M16.2381 15.0033L21.7435 9.49795C22.0855 9.1562 22.0855 8.6017 21.7435 8.25995C21.4014 7.91791 20.8475 7.91791 20.5055 8.25995L15.0001 13.7653L9.49453 8.25995C9.15249 7.91791 8.59857 7.91791 8.25653 8.25995C7.91449 8.6017 7.91449 9.1562 8.25653 9.49795L13.7621 15.0033L8.25653 20.5086C7.91449 20.8503 7.91449 21.4048 8.25653 21.7466C8.42755 21.9173 8.65169 22.0028 8.87553 22.0028C9.09937 22.0028 9.32351 21.9173 9.49453 21.7463L15.0001 16.241L20.5055 21.7463C20.6765 21.9173 20.9006 22.0028 21.1245 22.0028C21.3483 22.0028 21.5725 21.9173 21.7435 21.7463C22.0855 21.4046 22.0855 20.8501 21.7435 20.5083L16.2381 15.0033Z" fill="white"/>
</g>
<defs>
<clipPath id="clip0">
<rect width="14" height="14" fill="white" transform="translate(8 8)"/>
</clipPath>
</defs>
</svg>
