<svg width="40" height="40" viewBox="0 0 40 40" fill="none" xmlns="http://www.w3.org/2000/svg">
<circle cx="20" cy="20" r="20" fill="#EAF6FC"/>
<path d="M20.833 17.5H24.583L24.1663 19.1667H20.833V26.6667H19.1663V19.1667H15.833V17.5H19.1663V15.94C19.1663 14.4542 19.3213 13.915 19.6113 13.3717C19.8955 12.8349 20.3345 12.3959 20.8713 12.1117C21.4147 11.8217 21.9538 11.6667 23.4397 11.6667C23.8747 11.6667 24.2563 11.7084 24.583 11.7917V13.3334H23.4397C22.3363 13.3334 22.0005 13.3984 21.658 13.5817C21.4047 13.7167 21.2163 13.905 21.0813 14.1584C20.898 14.5009 20.833 14.8367 20.833 15.94V17.5Z" fill="#003459"/>
</svg>
