<svg width="35" height="35" viewBox="0 0 35 35" fill="none" xmlns="http://www.w3.org/2000/svg">
<path d="M17.5 0C7.85053 0 0 7.8505 0 17.5C0 27.1488 7.85053 35 17.5 35C27.1488 35 35 27.1488 35 17.5C35 7.8505 27.1502 0 17.5 0ZM21.8521 18.1162H19.005C19.005 22.6648 19.005 28.2639 19.005 28.2639H14.7861C14.7861 28.2639 14.7861 22.7192 14.7861 18.1162H12.7807V14.5295H14.7861V12.2097C14.7861 10.5483 15.5756 7.952 19.0437 7.952L22.17 7.96408V11.4455C22.17 11.4455 20.2702 11.4455 19.9008 11.4455C19.5316 11.4455 19.0064 11.6303 19.0064 12.4225V14.5302H22.2208L21.8521 18.1162Z" fill="#003459"/>
</svg>
