<svg width="40" height="40" viewBox="0 0 40 40" fill="none" xmlns="http://www.w3.org/2000/svg">
<circle cx="20" cy="20" r="20" fill="#EAF6FC"/>
<path d="M24.0035 16.8965C24.5006 16.8965 24.9035 16.4936 24.9035 15.9965C24.9035 15.4994 24.5006 15.0965 24.0035 15.0965C23.5065 15.0965 23.1035 15.4994 23.1035 15.9965C23.1035 16.4936 23.5065 16.8965 24.0035 16.8965Z" fill="#003459"/>
<path d="M19.9998 16.1486C19.2381 16.1486 18.4935 16.3745 17.8601 16.7977C17.2267 17.2209 16.7331 17.8224 16.4416 18.5261C16.1501 19.2299 16.0738 20.0043 16.2224 20.7514C16.371 21.4985 16.7379 22.1847 17.2765 22.7233C17.8151 23.262 18.5014 23.6288 19.2484 23.7774C19.9955 23.926 20.7699 23.8497 21.4737 23.5582C22.1774 23.2667 22.7789 22.7731 23.2021 22.1397C23.6253 21.5063 23.8512 20.7617 23.8512 20C23.8512 18.9785 23.4454 17.9989 22.7231 17.2767C22.0009 16.5544 21.0213 16.1486 19.9998 16.1486V16.1486ZM19.9998 22.5C19.5054 22.5 19.022 22.3534 18.6109 22.0787C18.1998 21.804 17.8793 21.4135 17.6901 20.9567C17.5009 20.4999 17.4514 19.9972 17.5479 19.5123C17.6443 19.0273 17.8824 18.5819 18.232 18.2322C18.5817 17.8826 19.0271 17.6445 19.5121 17.548C19.997 17.4516 20.4997 17.5011 20.9565 17.6903C21.4133 17.8795 21.8038 18.1999 22.0785 18.6111C22.3532 19.0222 22.4998 19.5055 22.4998 20C22.4998 20.663 22.2364 21.2989 21.7676 21.7678C21.2987 22.2366 20.6629 22.5 19.9998 22.5Z" fill="#003459"/>
<path d="M20 13.8514C22.0026 13.8514 22.2398 13.859 23.0306 13.8951C23.5062 13.9008 23.9773 13.9881 24.4233 14.1534C24.7467 14.2782 25.0405 14.4693 25.2856 14.7144C25.5308 14.9596 25.7219 15.2533 25.8467 15.5768C26.0119 16.0228 26.0993 16.4938 26.1049 16.9694C26.141 17.7603 26.1487 17.9975 26.1487 20.0001C26.1487 22.0026 26.1411 22.2399 26.1049 23.0307C26.0993 23.5063 26.0119 23.9774 25.8467 24.4234C25.7219 24.7468 25.5308 25.0405 25.2856 25.2857C25.0405 25.5308 24.7467 25.7219 24.4233 25.8467C23.9773 26.012 23.5062 26.0993 23.0306 26.105C22.2399 26.1411 22.0028 26.1487 20 26.1487C17.9972 26.1487 17.7601 26.1411 16.9694 26.105C16.4938 26.0993 16.0227 26.012 15.5767 25.8467C15.2532 25.7219 14.9595 25.5308 14.7144 25.2857C14.4692 25.0405 14.2781 24.7468 14.1533 24.4234C13.9881 23.9774 13.9007 23.5063 13.8951 23.0307C13.859 22.2399 13.8513 22.0026 13.8513 20.0001C13.8513 17.9975 13.8589 17.7603 13.8951 16.9694C13.9007 16.4938 13.9881 16.0228 14.1533 15.5768C14.2781 15.2533 14.4692 14.9596 14.7144 14.7144C14.9595 14.4693 15.2532 14.2781 15.5767 14.1533C16.0227 13.9881 16.4938 13.9007 16.9694 13.8951C17.7602 13.859 17.9974 13.8513 20 13.8513V13.8514ZM20 12.5C17.9631 12.5 17.7077 12.5086 16.9077 12.5451C16.2857 12.5576 15.6702 12.6755 15.0875 12.8938C14.5892 13.0864 14.1367 13.3811 13.7589 13.7589C13.3811 14.1367 13.0864 14.5892 12.8938 15.0875C12.6755 15.6703 12.5576 16.2859 12.5451 16.9081C12.5086 17.7077 12.5 17.9631 12.5 20C12.5 22.0369 12.5086 22.2923 12.5451 23.0922C12.5576 23.7144 12.6755 24.33 12.8938 24.9128C13.0864 25.4111 13.3811 25.8636 13.7589 26.2414C14.1367 26.6192 14.5892 26.9139 15.0875 27.1066C15.6703 27.3249 16.2859 27.4427 16.9081 27.4552C17.7077 27.4914 17.9631 27.5 20 27.5C22.0369 27.5 22.2923 27.4914 23.0922 27.4549C23.7144 27.4424 24.33 27.3245 24.9128 27.1063C25.4111 26.9136 25.8636 26.6189 26.2414 26.2411C26.6192 25.8633 26.9139 25.4108 27.1066 24.9125C27.3248 24.3297 27.4427 23.7141 27.4552 23.0919C27.4914 22.2923 27.5 22.0369 27.5 20C27.5 17.9631 27.4914 17.7077 27.4549 16.9077C27.4424 16.2857 27.3245 15.6702 27.1063 15.0875C26.9135 14.5893 26.6188 14.1368 26.2411 13.7591C25.8633 13.3814 25.4108 13.0867 24.9125 12.8941C24.3297 12.6758 23.7141 12.5579 23.0919 12.5454C22.2923 12.5086 22.0369 12.5 20 12.5Z" fill="#003459"/>
</svg>
