<svg width="128" height="35" viewBox="0 0 128 35" fill="none" xmlns="http://www.w3.org/2000/svg">
<path d="M17.1597 11.2778C15.0208 10.5972 12.1042 10.0139 9.28472 10.0139C4.76389 10.0139 0.583333 11.8125 0.583333 16.5764C0.583333 25.5208 13.3194 23.5764 13.3194 27.7569C13.3194 29.8472 11.2778 30.3819 8.75 30.3819C5.83333 30.3819 2.28472 29.3611 0.631944 28.7292L0 33.6389C2.33333 34.3194 5.73611 35 8.79861 35C13.8056 35 18.2292 33.5417 18.2292 28.0486C18.2292 19.0069 5.49305 21.3403 5.49305 16.7708C5.49305 15.2153 7.34028 14.6319 9.52778 14.6319C12.2014 14.6319 15.4097 15.3611 16.4792 15.75L17.1597 11.2778Z" fill="#1DA1F2"/>
<path d="M40.0745 34.6597V10.3542H35.2134V26.6875C33.7065 28.3889 30.9843 30.3819 28.5051 30.3819C26.4634 30.3819 25.7343 29.2639 25.7343 27.2708V10.3542H20.8732V27.5139C20.8732 32.4236 23.4982 35 27.9704 35C30.644 35 33.0259 33.7847 35.2134 31.8403L35.5537 34.6597H40.0745Z" fill="#1DA1F2"/>
<path d="M59.2444 11.2778C57.1055 10.5972 54.1888 10.0139 51.3694 10.0139C46.8486 10.0139 42.668 11.8125 42.668 16.5764C42.668 25.5208 55.4041 23.5764 55.4041 27.7569C55.4041 29.8472 53.3625 30.3819 50.8347 30.3819C47.918 30.3819 44.3694 29.3611 42.7166 28.7292L42.0847 33.6389C44.418 34.3194 47.8208 35 50.8833 35C55.8902 35 60.3138 33.5417 60.3138 28.0486C60.3138 19.0069 47.5777 21.3403 47.5777 16.7708C47.5777 15.2153 49.425 14.6319 51.6125 14.6319C54.2861 14.6319 57.4944 15.3611 58.5638 15.75L59.2444 11.2778Z" fill="#1DA1F2"/>
<path d="M69.3259 14.9722H74.187V10.3542H69.3259V3.0625L64.4648 4.03472V10.3542H61.8398V14.9722H64.4648V28.1458C64.4648 32.7639 66.7495 35 70.2981 35C71.6106 35 72.8259 34.6111 74.0412 33.9792L73.7495 29.5556C72.9231 30.0417 71.9995 30.3819 71.1731 30.3819C70.1523 30.3819 69.3259 29.7986 69.3259 28.0486V14.9722Z" fill="#1DA1F2"/>
<path d="M94.6553 34.6597V17.9375C94.6553 12.0556 90.1831 10.0139 85.2248 10.0139C82.4539 10.0139 79.5373 10.6458 77.1067 11.5694L77.69 16.2847C79.0511 15.6528 82.3567 14.6319 85.1761 14.6319C87.7039 14.6319 89.7942 15.4583 89.7942 18.1806V19.4444L84.3984 19.7361C79.0998 20.0278 75.697 22.4097 75.697 27.7569C75.697 32.7153 79.0025 35 82.8914 35C85.1761 35 87.6553 34.1736 89.7942 32.6181L90.1345 34.6597H94.6553ZM84.4956 24.2083L89.7942 23.9167V28.2431C88.1414 29.2639 85.9053 30.3819 83.3289 30.3819C81.6761 30.3819 80.5581 29.3125 80.5581 27.7569C80.5581 25.9097 81.6275 24.3542 84.4956 24.2083Z" fill="#1DA1F2"/>
<path d="M104.615 34.6597V14.8264C104.615 11.6667 103.449 10.3542 100.046 10.3542H97.4694V14.9722H99.025C99.5597 14.9722 99.7542 15.1667 99.7542 15.7014V34.6597H104.615ZM97.9069 3.45139C97.9069 5.34722 99.4625 6.90278 101.358 6.90278C103.254 6.90278 104.81 5.34722 104.81 3.45139C104.81 1.55556 103.254 0 101.358 0C99.4625 0 97.9069 1.55556 97.9069 3.45139Z" fill="#1DA1F2"/>
<path d="M108.734 10.3542V34.6597H113.595V18.6667C115.345 16.4792 118.019 14.6319 120.352 14.6319C122.151 14.6319 123.074 15.3611 123.074 17.2569V34.6597H127.935V17.2083C127.935 12.0556 124.678 10.0139 120.935 10.0139C118.067 10.0139 115.685 11.375 113.595 13.3681L113.255 10.3542H108.734Z" fill="#1DA1F2"/>
</svg>
