<svg width="35" height="35" viewBox="0 0 35 35" fill="none" xmlns="http://www.w3.org/2000/svg">
<path d="M17.5 0C7.8505 0 0 7.8505 0 17.5C0 27.1488 7.8505 35 17.5 35C27.1488 35 35 27.1488 35 17.5C35 7.8505 27.1502 0 17.5 0ZM25.3067 13.4948C25.3146 13.6682 25.3188 13.843 25.3188 14.0178C25.3188 19.3405 21.2685 25.476 13.8577 25.476C11.5831 25.476 9.4654 24.8113 7.68355 23.6679C7.99855 23.7053 8.31932 23.7244 8.6443 23.7244C10.532 23.7244 12.2682 23.08 13.647 22.0001C11.8848 21.9677 10.3966 20.8031 9.88417 19.2024C10.1295 19.2489 10.3826 19.275 10.6412 19.275C11.0086 19.275 11.3652 19.2271 11.7028 19.1347C9.8602 18.7652 8.47227 17.1377 8.47227 15.1851C8.47227 15.1681 8.47227 15.1506 8.47297 15.1343C9.01582 15.4353 9.63673 15.6172 10.2967 15.6376C9.21673 14.9165 8.50535 13.6829 8.50535 12.2859C8.50535 11.547 8.70345 10.8549 9.0503 10.2599C11.036 12.6975 14.0051 14.3005 17.3519 14.4695C17.2828 14.1743 17.2484 13.8677 17.2484 13.5511C17.2484 11.3272 19.0516 9.52333 21.2755 9.52333C22.4343 9.52333 23.4797 10.0124 24.2156 10.7949C25.1342 10.6144 25.9942 10.2804 26.7745 9.81715C26.4714 10.7583 25.8347 11.547 25.0008 12.0461C25.8165 11.9488 26.5947 11.7332 27.3143 11.4124C26.7773 12.2188 26.0942 12.9286 25.3067 13.4948Z" fill="#003459"/>
</svg>
