<svg width="40" height="40" viewBox="0 0 40 40" fill="none" xmlns="http://www.w3.org/2000/svg">
<circle cx="20" cy="20" r="20" fill="#EAF6FC"/>
<path d="M22.7496 14.625C22.1163 14.6249 21.5082 14.8734 21.0562 15.3172C20.6042 15.7609 20.3445 16.3643 20.3329 16.9975L20.3096 18.31C20.3082 18.3805 20.292 18.4499 20.2619 18.5136C20.2319 18.5774 20.1887 18.634 20.1351 18.6799C20.0816 18.7258 20.019 18.7598 19.9514 18.7798C19.8838 18.7998 19.8128 18.8053 19.7429 18.7958L18.4421 18.6192C16.7304 18.3858 15.0904 17.5975 13.5171 16.2867C13.0188 19.045 13.9921 20.9558 16.3363 22.43L17.7921 23.345C17.8613 23.3885 17.9187 23.4482 17.9595 23.5191C18.0002 23.5899 18.023 23.6696 18.0258 23.7512C18.0286 23.8329 18.0113 23.914 17.9755 23.9874C17.9397 24.0609 17.8865 24.1244 17.8204 24.1725L16.4938 25.1417C17.2829 25.1908 18.0321 25.1558 18.6538 25.0325C22.5854 24.2475 25.1996 21.2892 25.1996 16.4092C25.1996 16.0108 24.3563 14.625 22.7496 14.625V14.625ZM18.6663 16.9667C18.6808 16.1634 18.932 15.3822 19.3884 14.721C19.8448 14.0598 20.4861 13.5479 21.232 13.2495C21.978 12.951 22.7954 12.8792 23.5819 13.0431C24.3684 13.207 25.0891 13.5993 25.6538 14.1708C26.2463 14.1667 26.7504 14.3167 27.8779 13.6333C27.5988 15 27.4613 15.5933 26.8663 16.4092C26.8663 22.7775 22.9521 25.8742 18.9804 26.6667C16.2571 27.21 12.2971 26.3175 11.1621 25.1325C11.7404 25.0875 14.0904 24.835 15.4488 23.8408C14.2996 23.0833 9.72544 20.3917 12.7313 13.155C14.1421 14.8025 15.5729 15.9242 17.0229 16.5192C17.9879 16.915 18.2246 16.9067 18.6671 16.9675L18.6663 16.9667Z" fill="#003459"/>
</svg>
